<?xml version="1.0" encoding="iso-8859-1"?>
<!-- Generator: Adobe Illustrator 16.0.0, SVG Export Plug-In . SVG Version: 6.00 Build 0)  -->
<!DOCTYPE svg PUBLIC "-//W3C//DTD SVG 1.1//EN" "http://www.w3.org/Graphics/SVG/1.1/DTD/svg11.dtd">
<svg version="1.1" id="Capa_1" xmlns="http://www.w3.org/2000/svg" xmlns:xlink="http://www.w3.org/1999/xlink" x="0px" y="0px"
	 width="42.627px" height="42.627px" viewBox="0 0 42.627 42.627" style="enable-background:new 0 0 42.627 42.627;"
	 xml:space="preserve">
<g>
	<g id="_x31_59_1_">
		<path d="M34.744,17.748c-0.087-0.004-0.168,0.004-0.254,0.002c0.1-0.44,0.165-0.887,0.19-1.336
			c-0.224-4.134-3.166-7.074-7.298-7.297c-2.424-0.13-4.444,1.107-5.741,2.917c-1.296-1.706-3.311-2.785-5.746-2.917
			c-4.123-0.222-7.09,3.5-7.295,7.297c-0.024,0.488,0.008,0.957,0.084,1.411c-0.258-0.037-0.521-0.062-0.789-0.077
			c-4.457-0.24-7.664,3.783-7.885,7.886c-0.227,4.193,3.32,7.279,7.158,7.812v0.073h5.081v-4.438h-2.76l3.512-4.505l3.876,4.505
			h-2.759v4.438h6.513v-10.53h-3.754l5.274-6.131l4.779,6.131h-3.756v10.53h6.516v-4.438h-2.76l3.512-4.505l3.876,4.505H31.56v4.438
			h4.694v-0.091c3.653-0.62,6.178-4.173,6.373-7.796C42.39,21.167,39.211,17.988,34.744,17.748z"/>
	</g>
</g>
<g>
</g>
<g>
</g>
<g>
</g>
<g>
</g>
<g>
</g>
<g>
</g>
<g>
</g>
<g>
</g>
<g>
</g>
<g>
</g>
<g>
</g>
<g>
</g>
<g>
</g>
<g>
</g>
<g>
</g>
</svg>
